<svg xmlns="http://www.w3.org/2000/svg" width="74.229" height="74.313" viewBox="0 0 74.229 74.313">
  <path id="map-marker_1_" data-name="map-marker (1)" d="M37.115,37.1A12.372,12.372,0,1,0,24.743,24.73,12.372,12.372,0,0,0,37.115,37.1Zm0-18.557a6.186,6.186,0,1,1-6.186,6.186A6.186,6.186,0,0,1,37.115,18.545ZM49.486,68.124l24.743,6.025V41.689a9.279,9.279,0,0,0-6.6-8.88l-6.5-2.165a24.739,24.739,0,1,0-48.765-5.9,25.086,25.086,0,0,0,.309,3.749A9.254,9.254,0,0,0,0,37.1V67.264l24.69,7.055ZM23.991,11.629A18.557,18.557,0,1,1,50.26,37.848L37.115,50.711,23.991,37.872a18.557,18.557,0,0,1,0-26.243ZM6.186,37.1a3.046,3.046,0,0,1,1.379-2.573,3.115,3.115,0,0,1,3.043-.21l4.435,1.6a24.854,24.854,0,0,0,4.6,6.359L37.115,59.371l17.5-17.113a24.842,24.842,0,0,0,4.33-5.821L65.8,38.729A3.093,3.093,0,0,1,68.04,41.7V66.286L49.486,61.752,24.8,67.938,6.186,62.606Z" transform="translate(0 -0.006)" fill="#fff"/>
</svg>
